<?xml version="1.0" standalone="no"?>
<!DOCTYPE svg PUBLIC "-//W3C//DTD SVG 20010904//EN"
 "http://www.w3.org/TR/2001/REC-SVG-20010904/DTD/svg10.dtd">
<svg version="1.0" xmlns="http://www.w3.org/2000/svg"
 width="64.000000pt" height="64.000000pt" viewBox="0 0 64.000000 64.000000"
 preserveAspectRatio="xMidYMid meet">

<g transform="translate(0.000000,64.000000) scale(0.100000,-0.100000)"
fill="#000000" stroke="none">
<path d="M390 545 c-30 -79 -21 -103 10 -29 23 53 23 54 10 54 -6 0 -15 -11
-20 -25z"/>
<path d="M451 476 c-18 -19 -32 -39 -30 -45 3 -7 24 9 49 34 27 27 38 45 29
45 -8 0 -30 -15 -48 -34z"/>
<path d="M250 491 c0 -5 7 -14 15 -21 8 -7 15 -16 15 -21 0 -4 -34 -60 -75
-123 -41 -63 -75 -119 -75 -123 0 -5 18 -26 39 -47 28 -27 45 -37 57 -32 12 5
28 -4 51 -26 l33 -32 55 54 c30 30 55 59 55 64 0 5 -7 17 -16 27 -14 15 -13
19 14 38 36 25 45 26 62 6 7 -8 16 -15 21 -15 25 0 -2 36 -108 142 -106 107
-143 135 -143 109z m129 -294 c8 -10 1 -23 -29 -52 l-40 -39 -22 22 c-12 12
-20 23 -17 25 15 13 85 57 90 57 4 0 11 -6 18 -13z"/>
<path d="M515 413 c-47 -16 -68 -33 -39 -32 27 1 100 34 88 41 -5 3 -27 -1
-49 -9z"/>
<path d="M92 168 c-19 -19 -15 -32 21 -66 37 -36 49 -39 67 -17 11 14 7 22
-25 55 -43 44 -46 45 -63 28z"/>
</g>
</svg>
